<svg width="261" height="60" viewBox="0 0 261 60" fill="none" xmlns="http://www.w3.org/2000/svg">
<path d="M4.0957 52.7378C4.0957 51.7111 4.2596 50.7555 4.5874 49.8711C4.9152 48.9867 5.4069 48.2228 6.0625 47.5796C6.72428 46.9302 7.54688 46.423 8.53027 46.0581C9.51367 45.687 10.661 45.5015 11.9722 45.5015C12.9246 45.5015 13.8091 45.6468 14.6255 45.9375C15.4419 46.2282 16.1965 46.6982 16.8892 47.3477L18.0303 45.6406H18.6704V51.6616H17.9468C17.7241 50.6782 17.4211 49.8618 17.0376 49.2124C16.6603 48.563 16.2428 48.0465 15.7852 47.6631C15.3337 47.2734 14.8605 47.0013 14.3657 46.8467C13.8771 46.6859 13.4132 46.6055 12.9741 46.6055C12.7638 46.6055 12.5535 46.624 12.3433 46.6611C12.1392 46.6921 11.9412 46.7694 11.7495 46.8931C11.5578 47.0106 11.3784 47.1838 11.2114 47.4126C11.0444 47.6414 10.8991 47.9538 10.7754 48.3496C10.6579 48.7393 10.562 49.2217 10.4878 49.7969C10.4198 50.3721 10.3857 51.0648 10.3857 51.875C10.3857 52.7223 10.4105 53.4676 10.46 54.1108C10.5156 54.7541 10.596 55.3107 10.7012 55.7808C10.8125 56.2508 10.9455 56.6405 11.1001 56.9497C11.2609 57.259 11.4465 57.5063 11.6567 57.6919C11.8732 57.8774 12.1144 58.0104 12.3804 58.0908C12.6463 58.165 12.937 58.2021 13.2524 58.2021C13.8709 58.2021 14.4492 58.1094 14.9873 57.9238C15.5254 57.7321 16.0016 57.4321 16.416 57.0239C16.8304 56.6157 17.1706 56.09 17.4365 55.4468C17.7087 54.8035 17.8849 54.0304 17.9653 53.1274H18.7817C18.7323 53.9995 18.5745 54.8128 18.3086 55.5674C18.0488 56.3219 17.6499 56.9806 17.1118 57.5435C16.5737 58.1063 15.881 58.5485 15.0337 58.8701C14.1864 59.1917 13.1535 59.3525 11.9351 59.3525C10.7476 59.3525 9.67139 59.1917 8.70654 58.8701C7.7417 58.5485 6.91602 58.097 6.22949 57.5156C5.54915 56.9281 5.02344 56.2292 4.65234 55.4189C4.28125 54.6087 4.0957 53.715 4.0957 52.7378Z" fill="white"/>
<path d="M20.0063 58.2671C20.5073 58.2671 20.8908 58.2331 21.1567 58.165C21.4289 58.097 21.6021 57.9733 21.6763 57.7939L26.4541 45.854H30.5269L36.1211 58.2671H37.7354V59H27.2148V58.2671H29.0054L27.7251 55.0664H23.6431L22.5576 57.7661C22.5514 57.7847 22.5483 57.8094 22.5483 57.8403C22.5483 57.9269 22.5885 57.998 22.6689 58.0537C22.7555 58.1032 22.873 58.1465 23.0215 58.1836C23.1761 58.2145 23.3555 58.2362 23.5596 58.2485C23.7699 58.2609 23.9987 58.2671 24.2461 58.2671V59H20.0063V58.2671ZM27.4375 54.3335L25.647 49.9546L23.9307 54.3335H27.4375Z" fill="white"/>
<path d="M40.9453 58.2671H42.5596V46.5776H41.2236L38.9507 51.1606H38.3105V45.854H53.2192V51.1606H52.5698L50.3062 46.5776H48.9609V58.2671H50.5845V59H40.9453V58.2671Z" fill="white"/>
<path d="M54.7593 58.2671H56.3828V46.5776H54.7593V45.854H69.1299V50.3721H68.499L65.9199 46.5776H62.7842V52.0977H64.1851L65.4097 49.0361H66.0127V55.9014H65.4097L64.1851 52.8213H62.7842V58.2671H66.2446L68.9351 54.0459H69.5752V59H54.7593V58.2671Z" fill="white"/>
<path d="M71.9409 58.2671H73.5645V46.5776H71.9409V45.854H82.5449C83.3923 45.854 84.1468 45.922 84.8086 46.0581C85.4766 46.1942 86.0363 46.4045 86.4878 46.689C86.9455 46.9673 87.2918 47.3229 87.5269 47.7559C87.7681 48.1888 87.8887 48.6991 87.8887 49.2866C87.8887 49.8 87.7835 50.2576 87.5732 50.6597C87.3691 51.0617 87.0166 51.4019 86.5156 51.6802C86.0208 51.9585 85.356 52.175 84.521 52.3296C83.6922 52.478 82.6562 52.5553 81.4131 52.5615C82.5264 52.5677 83.4757 52.6234 84.2612 52.7285C85.0467 52.8275 85.6868 53.0037 86.1816 53.2573C86.6826 53.5047 87.0475 53.8418 87.2764 54.2686C87.5052 54.6891 87.6196 55.2241 87.6196 55.8735C87.6196 56.0529 87.6165 56.2075 87.6104 56.3374C87.6104 56.4611 87.6073 56.6095 87.6011 56.7827C87.5887 56.9621 87.5825 57.1012 87.5825 57.2002C87.5825 57.293 87.5825 57.4012 87.5825 57.5249C87.5825 57.7166 87.6073 57.862 87.6567 57.9609C87.7124 58.0599 87.8021 58.1094 87.9258 58.1094C88.1299 58.1094 88.2783 57.9115 88.3711 57.5156C88.4639 57.1198 88.5103 56.5477 88.5103 55.7993H89.2896V56.0962C89.2896 56.7085 89.2308 57.2249 89.1133 57.6455C89.002 58.0661 88.7979 58.4062 88.501 58.666C88.2103 58.9258 87.8175 59.1113 87.3228 59.2227C86.828 59.3402 86.2002 59.3989 85.4395 59.3989C84.7096 59.3989 84.1035 59.3216 83.6211 59.167C83.1387 59.0186 82.7521 58.7959 82.4614 58.499C82.1769 58.2021 81.9759 57.8341 81.8584 57.395C81.7409 56.9559 81.6821 56.4487 81.6821 55.8735C81.6821 55.2427 81.6481 54.7262 81.5801 54.3242C81.5182 53.9222 81.4193 53.6068 81.2832 53.3779C81.1471 53.1429 80.9678 52.9821 80.7451 52.8955C80.5286 52.8089 80.2689 52.7656 79.9658 52.7656V58.2671H81.5801V59H71.9409V58.2671ZM79.9658 52.0327C80.2998 52.0327 80.5905 51.9925 80.8379 51.9121C81.0853 51.8317 81.2894 51.6895 81.4502 51.4854C81.6172 51.2812 81.7409 51.0029 81.8213 50.6504C81.9017 50.2917 81.9419 49.8371 81.9419 49.2866C81.9419 48.7362 81.9017 48.2878 81.8213 47.9414C81.7409 47.5889 81.6172 47.3136 81.4502 47.1157C81.2894 46.9116 81.0853 46.7725 80.8379 46.6982C80.5905 46.6178 80.2998 46.5776 79.9658 46.5776V52.0327Z" fill="white"/>
<path d="M90.7739 58.2671H92.3975V46.5776H90.7739V45.854H100.413V46.5776H98.7988V58.2671H100.413V59H90.7739V58.2671Z" fill="white"/>
<path d="M101.768 58.2671C102.034 58.2671 102.29 58.2609 102.538 58.2485C102.791 58.23 103.014 58.2021 103.206 58.165C103.397 58.1279 103.549 58.0754 103.66 58.0073C103.778 57.9393 103.836 57.8496 103.836 57.7383V48.062L102.705 46.5776H101.601V45.854H109.709L115.674 53.7119V47.125C115.674 47.0137 115.634 46.924 115.554 46.856C115.479 46.7817 115.368 46.7261 115.22 46.689C115.071 46.6457 114.892 46.6178 114.682 46.6055C114.471 46.5869 114.233 46.5776 113.967 46.5776V45.854H118.17V46.5776C117.638 46.5776 117.221 46.6117 116.917 46.6797C116.614 46.7477 116.463 46.8962 116.463 47.125V59H111.759L104.625 49.1011V57.6919C104.625 57.8156 104.674 57.9146 104.773 57.9888C104.879 58.063 105.018 58.1217 105.191 58.165C105.37 58.2021 105.581 58.23 105.822 58.2485C106.063 58.2609 106.32 58.2671 106.592 58.2671V59H101.768V58.2671Z" fill="white"/>
<path d="M119.747 52.7378C119.747 51.7173 119.905 50.7679 120.22 49.8896C120.542 49.0052 121.021 48.2383 121.658 47.5889C122.301 46.9395 123.102 46.4292 124.061 46.0581C125.026 45.687 126.155 45.5015 127.447 45.5015C128.369 45.5015 129.259 45.6406 130.119 45.9189C130.985 46.1973 131.792 46.6735 132.541 47.3477L133.682 45.6406H134.322V51.6616H133.598C133.375 50.6782 133.072 49.8618 132.689 49.2124C132.312 48.563 131.894 48.0465 131.437 47.6631C130.985 47.2734 130.512 47.0013 130.017 46.8467C129.528 46.6859 129.065 46.6055 128.625 46.6055C128.415 46.6055 128.205 46.624 127.995 46.6611C127.791 46.6921 127.593 46.7694 127.401 46.8931C127.209 47.0106 127.03 47.1838 126.863 47.4126C126.696 47.6414 126.55 47.9538 126.427 48.3496C126.309 48.7393 126.213 49.2217 126.139 49.7969C126.071 50.3721 126.037 51.0648 126.037 51.875C126.037 53.0996 126.062 54.1356 126.111 54.9829C126.167 55.8302 126.257 56.5168 126.38 57.0425C126.51 57.562 126.677 57.9393 126.881 58.1743C127.092 58.4093 127.351 58.5269 127.661 58.5269C127.908 58.5269 128.103 58.4774 128.245 58.3784C128.387 58.2795 128.493 58.1217 128.561 57.9053C128.629 57.6826 128.669 57.3981 128.681 57.0518C128.7 56.6992 128.709 56.2694 128.709 55.7622V53.1274H126.983V52.3945H135.815V53.1274H134.322V59.3525H133.747C133.45 59.0495 133.147 58.8392 132.837 58.7217C132.528 58.6042 132.2 58.5454 131.854 58.5454C131.52 58.5454 131.183 58.5825 130.843 58.6567C130.503 58.731 130.138 58.8175 129.748 58.9165C129.309 59.0216 128.839 59.1206 128.338 59.2134C127.843 59.3123 127.296 59.3618 126.696 59.3618C125.638 59.3618 124.683 59.1886 123.829 58.8423C122.976 58.4959 122.246 58.0228 121.64 57.4229C121.034 56.8229 120.567 56.1209 120.239 55.3169C119.911 54.5129 119.747 53.6532 119.747 52.7378Z" fill="white"/>
<path d="M145.204 53.9531H145.826C145.98 54.2562 146.172 54.584 146.401 54.9365C146.63 55.2829 146.899 55.6292 147.208 55.9756C147.517 56.3219 147.87 56.6559 148.266 56.9775C148.661 57.293 149.104 57.5713 149.592 57.8125C150.081 58.0537 150.619 58.2485 151.207 58.397C151.794 58.5392 152.437 58.6104 153.136 58.6104C153.34 58.6104 153.569 58.6011 153.823 58.5825C154.076 58.5578 154.314 58.5114 154.537 58.4434C154.76 58.3691 154.945 58.2671 155.094 58.1372C155.248 58.0011 155.326 57.8218 155.326 57.5991C155.326 57.3641 155.227 57.1569 155.029 56.9775C154.837 56.792 154.543 56.6157 154.147 56.4487C153.752 56.2756 153.251 56.1024 152.645 55.9292C152.045 55.756 151.336 55.5612 150.52 55.3447C148.702 54.8747 147.353 54.2191 146.475 53.3779C145.603 52.5306 145.167 51.4977 145.167 50.2793C145.167 49.5186 145.322 48.8413 145.631 48.2476C145.946 47.6538 146.373 47.1559 146.911 46.7539C147.455 46.3457 148.089 46.0365 148.813 45.8262C149.543 45.6097 150.319 45.5015 151.142 45.5015C151.562 45.5015 152.001 45.5386 152.459 45.6128C152.923 45.687 153.374 45.7891 153.813 45.9189C154.253 46.0488 154.667 46.2065 155.057 46.3921C155.446 46.5715 155.786 46.7694 156.077 46.9858L157.478 45.6313H158.118V49.667H157.534C157.262 49.1784 156.912 48.7238 156.485 48.3032C156.059 47.8826 155.57 47.5177 155.02 47.2085C154.469 46.8993 153.86 46.6549 153.192 46.4756C152.524 46.2962 151.816 46.2065 151.067 46.2065C150.925 46.2065 150.743 46.2127 150.52 46.2251C150.297 46.2313 150.078 46.2622 149.861 46.3179C149.651 46.3735 149.469 46.4632 149.314 46.5869C149.159 46.7044 149.082 46.8714 149.082 47.0879C149.082 47.4404 149.401 47.7806 150.038 48.1084C150.681 48.43 151.636 48.7578 152.904 49.0918C153.442 49.234 153.962 49.3856 154.463 49.5464C154.964 49.701 155.431 49.8804 155.864 50.0845C156.303 50.2824 156.699 50.5112 157.051 50.771C157.41 51.0246 157.716 51.3245 157.97 51.6709C158.223 52.0173 158.418 52.4131 158.554 52.8584C158.696 53.3037 158.768 53.8171 158.768 54.3984C158.768 55.0726 158.644 55.7096 158.396 56.3096C158.149 56.9095 157.778 57.4352 157.283 57.8867C156.795 58.3382 156.185 58.6969 155.456 58.9629C154.726 59.2227 153.882 59.3525 152.923 59.3525C152.397 59.3525 151.902 59.3123 151.438 59.2319C150.975 59.1515 150.523 59.0309 150.084 58.8701C149.651 58.7093 149.221 58.5083 148.794 58.2671C148.368 58.0197 147.929 57.7321 147.477 57.4043L145.9 59.1763H145.204V53.9531Z" fill="white"/>
<path d="M160.836 58.2671H162.46V46.5776H160.836V45.854H175.207V50.3721H174.576L171.997 46.5776H168.861V52.0977H170.262L171.487 49.0361H172.09V55.9014H171.487L170.262 52.8213H168.861V58.2671H172.322L175.012 54.0459H175.652V59H160.836V58.2671Z" fill="white"/>
<path d="M178.018 58.2671H179.642V46.5776H178.018V45.854H188.622C189.469 45.854 190.224 45.922 190.886 46.0581C191.554 46.1942 192.113 46.4045 192.565 46.689C193.023 46.9673 193.369 47.3229 193.604 47.7559C193.845 48.1888 193.966 48.6991 193.966 49.2866C193.966 49.8 193.861 50.2576 193.65 50.6597C193.446 51.0617 193.094 51.4019 192.593 51.6802C192.098 51.9585 191.433 52.175 190.598 52.3296C189.769 52.478 188.733 52.5553 187.49 52.5615C188.604 52.5677 189.553 52.6234 190.338 52.7285C191.124 52.8275 191.764 53.0037 192.259 53.2573C192.76 53.5047 193.125 53.8418 193.354 54.2686C193.582 54.6891 193.697 55.2241 193.697 55.8735C193.697 56.0529 193.694 56.2075 193.688 56.3374C193.688 56.4611 193.684 56.6095 193.678 56.7827C193.666 56.9621 193.66 57.1012 193.66 57.2002C193.66 57.293 193.66 57.4012 193.66 57.5249C193.66 57.7166 193.684 57.862 193.734 57.9609C193.79 58.0599 193.879 58.1094 194.003 58.1094C194.207 58.1094 194.355 57.9115 194.448 57.5156C194.541 57.1198 194.587 56.5477 194.587 55.7993H195.367V56.0962C195.367 56.7085 195.308 57.2249 195.19 57.6455C195.079 58.0661 194.875 58.4062 194.578 58.666C194.287 58.9258 193.895 59.1113 193.4 59.2227C192.905 59.3402 192.277 59.3989 191.517 59.3989C190.787 59.3989 190.181 59.3216 189.698 59.167C189.216 59.0186 188.829 58.7959 188.539 58.499C188.254 58.2021 188.053 57.8341 187.936 57.395C187.818 56.9559 187.759 56.4487 187.759 55.8735C187.759 55.2427 187.725 54.7262 187.657 54.3242C187.595 53.9222 187.496 53.6068 187.36 53.3779C187.224 53.1429 187.045 52.9821 186.822 52.8955C186.606 52.8089 186.346 52.7656 186.043 52.7656V58.2671H187.657V59H178.018V58.2671ZM186.043 52.0327C186.377 52.0327 186.668 51.9925 186.915 51.9121C187.162 51.8317 187.367 51.6895 187.527 51.4854C187.694 51.2812 187.818 51.0029 187.898 50.6504C187.979 50.2917 188.019 49.8371 188.019 49.2866C188.019 48.7362 187.979 48.2878 187.898 47.9414C187.818 47.5889 187.694 47.3136 187.527 47.1157C187.367 46.9116 187.162 46.7725 186.915 46.6982C186.668 46.6178 186.377 46.5776 186.043 46.5776V52.0327Z" fill="white"/>
<path d="M197.25 46.5776H195.886V45.854H205.794V46.5776H204.162L207.297 54.686L210.108 47.1528C210.127 47.0972 210.136 47.0477 210.136 47.0044C210.136 46.924 210.093 46.859 210.006 46.8096C209.926 46.7539 209.808 46.7106 209.654 46.6797C209.505 46.6426 209.326 46.6178 209.116 46.6055C208.912 46.5869 208.686 46.5776 208.438 46.5776V45.854H212.762V46.5776C212.217 46.5776 211.815 46.6209 211.556 46.7075C211.302 46.7941 211.135 46.9425 211.055 47.1528L206.667 59H202.687L197.25 46.5776Z" fill="white"/>
<path d="M213.55 58.2671H215.174V46.5776H213.55V45.854H223.189V46.5776H221.575V58.2671H223.189V59H213.55V58.2671Z" fill="white"/>
<path d="M225.212 52.7378C225.212 51.7111 225.376 50.7555 225.704 49.8711C226.031 48.9867 226.523 48.2228 227.179 47.5796C227.84 46.9302 228.663 46.423 229.646 46.0581C230.63 45.687 231.777 45.5015 233.088 45.5015C234.041 45.5015 234.925 45.6468 235.742 45.9375C236.558 46.2282 237.313 46.6982 238.005 47.3477L239.146 45.6406H239.787V51.6616H239.063C238.84 50.6782 238.537 49.8618 238.154 49.2124C237.777 48.563 237.359 48.0465 236.901 47.6631C236.45 47.2734 235.977 47.0013 235.482 46.8467C234.993 46.6859 234.529 46.6055 234.09 46.6055C233.88 46.6055 233.67 46.624 233.459 46.6611C233.255 46.6921 233.057 46.7694 232.866 46.8931C232.674 47.0106 232.495 47.1838 232.328 47.4126C232.161 47.6414 232.015 47.9538 231.892 48.3496C231.774 48.7393 231.678 49.2217 231.604 49.7969C231.536 50.3721 231.502 51.0648 231.502 51.875C231.502 52.7223 231.527 53.4676 231.576 54.1108C231.632 54.7541 231.712 55.3107 231.817 55.7808C231.929 56.2508 232.062 56.6405 232.216 56.9497C232.377 57.259 232.563 57.5063 232.773 57.6919C232.989 57.8774 233.231 58.0104 233.497 58.0908C233.763 58.165 234.053 58.2021 234.369 58.2021C234.987 58.2021 235.565 58.1094 236.104 57.9238C236.642 57.7321 237.118 57.4321 237.532 57.0239C237.947 56.6157 238.287 56.09 238.553 55.4468C238.825 54.8035 239.001 54.0304 239.082 53.1274H239.898C239.848 53.9995 239.691 54.8128 239.425 55.5674C239.165 56.3219 238.766 56.9806 238.228 57.5435C237.69 58.1063 236.997 58.5485 236.15 58.8701C235.303 59.1917 234.27 59.3525 233.051 59.3525C231.864 59.3525 230.788 59.1917 229.823 58.8701C228.858 58.5485 228.032 58.097 227.346 57.5156C226.665 56.9281 226.14 56.2292 225.769 55.4189C225.397 54.6087 225.212 53.715 225.212 52.7378Z" fill="white"/>
<path d="M242.18 58.2671H243.804V46.5776H242.18V45.854H256.551V50.3721H255.92L253.341 46.5776H250.205V52.0977H251.606L252.831 49.0361H253.434V55.9014H252.831L251.606 52.8213H250.205V58.2671H253.666L256.356 54.0459H256.996V59H242.18V58.2671Z" fill="white"/>
<path d="M0.417969 34.0713H4.69043V3.30957H0.417969V1.40527H27.6396C30.2275 1.40527 32.5632 1.7959 34.6465 2.57715C36.7298 3.34212 38.5039 4.46517 39.9688 5.94629C41.4336 7.42741 42.5566 9.24219 43.3379 11.3906C44.1354 13.5228 44.5342 15.9561 44.5342 18.6904C44.5342 21.4411 44.1354 23.8906 43.3379 26.0391C42.5566 28.1875 41.4336 30.0023 39.9688 31.4834C38.5039 32.9482 36.7298 34.0713 34.6465 34.8525C32.5632 35.6175 30.2275 36 27.6396 36H0.417969V34.0713ZM21.5361 34.0713C22.3011 34.0713 22.9928 33.998 23.6113 33.8516C24.2461 33.6888 24.7995 33.3958 25.2715 32.9727C25.7435 32.5495 26.1504 31.9798 26.4922 31.2637C26.834 30.5312 27.1107 29.5954 27.3223 28.4561C27.5501 27.3167 27.7129 25.9495 27.8105 24.3545C27.9245 22.7432 27.9814 20.8551 27.9814 18.6904C27.9814 16.5257 27.9245 14.6458 27.8105 13.0508C27.7129 11.4557 27.5501 10.0885 27.3223 8.94922C27.1107 7.8099 26.834 6.87402 26.4922 6.1416C26.1504 5.40918 25.7435 4.83952 25.2715 4.43262C24.7995 4.00944 24.2461 3.71647 23.6113 3.55371C22.9928 3.39095 22.3011 3.30957 21.5361 3.30957V34.0713Z" fill="white"/>
<path d="M49.832 34.0713H54.1045V3.30957H49.832V1.40527H75.1982V3.30957H70.9502V34.0713H75.1982V36H49.832V34.0713Z" fill="white"/>
<path d="M82.1318 22.7188H83.7676C84.1745 23.5163 84.679 24.3789 85.2812 25.3066C85.8835 26.2181 86.5915 27.1296 87.4053 28.041C88.2191 28.9525 89.1468 29.8314 90.1885 30.6777C91.2301 31.5078 92.3939 32.2402 93.6797 32.875C94.9655 33.5098 96.3815 34.0225 97.9277 34.4131C99.474 34.7874 101.167 34.9746 103.006 34.9746C103.543 34.9746 104.145 34.9502 104.812 34.9014C105.48 34.8363 106.106 34.7142 106.692 34.5352C107.278 34.3398 107.767 34.0713 108.157 33.7295C108.564 33.3714 108.768 32.8994 108.768 32.3135C108.768 31.695 108.507 31.1497 107.986 30.6777C107.482 30.1895 106.709 29.7256 105.667 29.2861C104.625 28.8304 103.307 28.3747 101.712 27.9189C100.133 27.4632 98.2695 26.9505 96.1211 26.3809C91.3359 25.1439 87.7878 23.4186 85.4766 21.2051C83.1816 18.9753 82.0342 16.2572 82.0342 13.0508C82.0342 11.0488 82.4411 9.2666 83.2549 7.7041C84.085 6.1416 85.208 4.83138 86.624 3.77344C88.0563 2.69922 89.7246 1.88542 91.6289 1.33203C93.5495 0.76237 95.5921 0.477539 97.7568 0.477539C98.8636 0.477539 100.019 0.575195 101.224 0.770508C102.444 0.96582 103.632 1.23438 104.788 1.57617C105.944 1.91797 107.034 2.33301 108.06 2.82129C109.085 3.29329 109.98 3.81413 110.745 4.38379L114.432 0.819336H116.116V11.4395H114.578C113.862 10.1536 112.942 8.95736 111.819 7.85059C110.696 6.74382 109.41 5.78353 107.962 4.96973C106.513 4.15592 104.91 3.51302 103.152 3.04102C101.395 2.56901 99.5309 2.33301 97.5615 2.33301C97.1872 2.33301 96.707 2.34928 96.1211 2.38184C95.5352 2.39811 94.9574 2.47949 94.3877 2.62598C93.8343 2.77246 93.3542 3.00846 92.9473 3.33398C92.5404 3.64323 92.3369 4.08268 92.3369 4.65234C92.3369 5.58008 93.1751 6.47526 94.8516 7.33789C96.5443 8.18424 99.0589 9.04688 102.396 9.92578C103.812 10.3001 105.179 10.6989 106.497 11.1221C107.815 11.529 109.044 12.001 110.184 12.5381C111.339 13.0589 112.381 13.6611 113.309 14.3447C114.253 15.012 115.058 15.8014 115.726 16.7129C116.393 17.6243 116.906 18.666 117.264 19.8379C117.638 21.0098 117.825 22.3607 117.825 23.8906C117.825 25.6647 117.5 27.3411 116.849 28.9199C116.198 30.4987 115.221 31.8822 113.919 33.0703C112.633 34.2585 111.03 35.2025 109.109 35.9023C107.189 36.5859 104.967 36.9277 102.444 36.9277C101.061 36.9277 99.7588 36.8219 98.5381 36.6104C97.3174 36.3988 96.1292 36.0814 94.9736 35.6582C93.8343 35.235 92.7031 34.7061 91.5801 34.0713C90.457 33.4202 89.3014 32.6634 88.1133 31.8008L83.9629 36.4639H82.1318V22.7188Z" fill="white"/>
<path d="M123.27 34.0713H127.542V3.30957H123.27V1.40527H146.805V3.30957H144.388V16.5176H152.005V3.30957H149.563V1.40527H173.099V3.30957H168.851V34.0713H173.099V36H149.563V34.0713H152.005V18.4219H144.388V34.0713H146.805V36H123.27V34.0713Z" fill="white"/>
<path d="M177.957 34.0713H182.229V3.30957H177.957V1.40527H215.774V13.2949H214.114L207.327 3.30957H199.075V17.8359H202.762L205.984 9.7793H207.571V27.8457H205.984L202.762 19.7402H199.075V34.0713H208.182L215.262 22.9629H216.946V36H177.957V34.0713Z" fill="white"/>
<path d="M225.247 22.7188H226.883C227.29 23.5163 227.794 24.3789 228.396 25.3066C228.999 26.2181 229.707 27.1296 230.521 28.041C231.334 28.9525 232.262 29.8314 233.304 30.6777C234.345 31.5078 235.509 32.2402 236.795 32.875C238.081 33.5098 239.497 34.0225 241.043 34.4131C242.589 34.7874 244.282 34.9746 246.121 34.9746C246.658 34.9746 247.26 34.9502 247.928 34.9014C248.595 34.8363 249.222 34.7142 249.808 34.5352C250.394 34.3398 250.882 34.0713 251.272 33.7295C251.679 33.3714 251.883 32.8994 251.883 32.3135C251.883 31.695 251.622 31.1497 251.102 30.6777C250.597 30.1895 249.824 29.7256 248.782 29.2861C247.741 28.8304 246.422 28.3747 244.827 27.9189C243.248 27.4632 241.385 26.9505 239.236 26.3809C234.451 25.1439 230.903 23.4186 228.592 21.2051C226.297 18.9753 225.149 16.2572 225.149 13.0508C225.149 11.0488 225.556 9.2666 226.37 7.7041C227.2 6.1416 228.323 4.83138 229.739 3.77344C231.172 2.69922 232.84 1.88542 234.744 1.33203C236.665 0.76237 238.707 0.477539 240.872 0.477539C241.979 0.477539 243.134 0.575195 244.339 0.770508C245.56 0.96582 246.748 1.23438 247.903 1.57617C249.059 1.91797 250.149 2.33301 251.175 2.82129C252.2 3.29329 253.095 3.81413 253.86 4.38379L257.547 0.819336H259.231V11.4395H257.693C256.977 10.1536 256.058 8.95736 254.935 7.85059C253.812 6.74382 252.526 5.78353 251.077 4.96973C249.629 4.15592 248.025 3.51302 246.268 3.04102C244.51 2.56901 242.646 2.33301 240.677 2.33301C240.302 2.33301 239.822 2.34928 239.236 2.38184C238.65 2.39811 238.073 2.47949 237.503 2.62598C236.95 2.77246 236.469 3.00846 236.062 3.33398C235.656 3.64323 235.452 4.08268 235.452 4.65234C235.452 5.58008 236.29 6.47526 237.967 7.33789C239.66 8.18424 242.174 9.04688 245.511 9.92578C246.927 10.3001 248.294 10.6989 249.612 11.1221C250.931 11.529 252.16 12.001 253.299 12.5381C254.454 13.0589 255.496 13.6611 256.424 14.3447C257.368 15.012 258.174 15.8014 258.841 16.7129C259.508 17.6243 260.021 18.666 260.379 19.8379C260.753 21.0098 260.94 22.3607 260.94 23.8906C260.94 25.6647 260.615 27.3411 259.964 28.9199C259.313 30.4987 258.336 31.8822 257.034 33.0703C255.748 34.2585 254.145 35.2025 252.225 35.9023C250.304 36.5859 248.082 36.9277 245.56 36.9277C244.176 36.9277 242.874 36.8219 241.653 36.6104C240.433 36.3988 239.244 36.0814 238.089 35.6582C236.95 35.235 235.818 34.7061 234.695 34.0713C233.572 33.4202 232.417 32.6634 231.229 31.8008L227.078 36.4639H225.247V22.7188Z" fill="white"/>
</svg>
