<svg width="15" height="15" viewBox="0 0 15 15" fill="none" xmlns="http://www.w3.org/2000/svg">
<path d="M13.5805 0.956055L10.7367 0.299805C10.4359 0.217773 10.1078 0.381836 9.97109 0.682617L8.65859 3.74512C8.54922 4.01855 8.63125 4.31934 8.85 4.51074L10.518 5.87793C9.53359 7.95605 7.81094 9.70605 5.67812 10.7178L4.31094 9.0498C4.11953 8.83105 3.81875 8.74902 3.54531 8.8584L0.482812 10.1709C0.182031 10.3076 0.0453124 10.6357 0.0999999 10.9365L0.75625 13.7803C0.838281 14.0811 1.08437 14.2725 1.4125 14.2725C8.4125 14.2725 14.1 8.6123 14.1 1.58496C14.1 1.28418 13.8812 1.03809 13.5805 0.956055Z" fill="#FF3547"/>
</svg>
